<svg xmlns="http://www.w3.org/2000/svg" width="560" height="360" viewBox="0 0 560 360">
  <defs>
    <filter id="mascotShadow" x="-30%" y="-30%" width="160%" height="160%">
      <feDropShadow dx="0" dy="10" stdDeviation="10" flood-color="#000" flood-opacity="0.25"/>
    </filter>
  </defs>
  <rect width="560" height="360" fill="#ffffff"/>

  <text x="64" y="122" font-size="26" font-weight="800" fill="#111827"
        font-family="system-ui,-apple-system,BlinkMacSystemFont,Segoe UI,Roboto,Arial">
    iPad Pro 2024 创作者视角
  </text>
  <text x="64" y="162" font-size="14" fill="#6b7280"
        font-family="system-ui,-apple-system,BlinkMacSystemFont,Segoe UI,Roboto,Arial">
    📦 好物
  </text>

  <g transform="translate(64 190)">
    <circle cx="14" cy="14" r="14" fill="#111827"/>
    <path d="M14 7.2l1.2 1.2-3.2 8.2-3-3 1.2-1.2 1.6 1.6z" fill="#ffffff"/>
    <text x="40" y="20" font-size="16" font-weight="700" fill="#111827"
          font-family="system-ui,-apple-system,BlinkMacSystemFont,Segoe UI,Roboto,Arial">Pengue</text>
  </g>

  <!-- mascot -->
  <g filter="url(#mascotShadow)" transform="translate(390 96)">
    <ellipse cx="86" cy="92" rx="62" ry="70" fill="#e64545"/>
    <ellipse cx="52" cy="108" rx="18" ry="18" fill="#e64545"/>
    <ellipse cx="120" cy="108" rx="18" ry="18" fill="#e64545"/>
    <ellipse cx="66" cy="156" rx="18" ry="14" fill="#d63b3b"/>
    <ellipse cx="106" cy="156" rx="18" ry="14" fill="#d63b3b"/>
    <circle cx="68" cy="86" r="6" fill="#111827"/>
    <circle cx="104" cy="86" r="6" fill="#111827"/>
    <path d="M50 48c8-12 18-18 30-18" fill="none" stroke="#e64545" stroke-width="8" stroke-linecap="round"/>
    <path d="M122 48c-8-12-18-18-30-18" fill="none" stroke="#e64545" stroke-width="8" stroke-linecap="round"/>
  </g>
</svg>
